<svg xmlns="http://www.w3.org/2000/svg" xmlns:xlink="http://www.w3.org/1999/xlink" width="507" height="323">
  <defs>
    <path id="a" d="M0 0h154.028v23.672H0z"/>
    <path id="c" d="M0 0h154.008v23.674H0z"/>
  </defs>
  <g fill="none" fill-rule="evenodd">
    <path fill="#01A4BB" d="M11.064 281.24h400.951v-9.267H11.064z"/>
    <path fill="#E94924" d="M410.65 322.883h90.678V172.32H410.65z"/>
    <path fill="#FCB11C" d="M151.468 174.348h-12.829v7.576h12.829v72.292h8.723v-72.292h12.828v-7.576H151.468Zm-39.318 52.004 6.542-45.84 7.42 45.84H112.15Zm-.385-52.004-12.443 79.868h8.851l2.895-20.288h16.27l3.283 20.288h8.853l-13.726-79.868h-13.983Zm104.869 34.926c0 1.627-.236 2.697-.705 3.21-.471.514-1.56.771-3.27.771h-11.932v-31.33h11.931c1.71 0 2.8.235 3.27.706.47.47.706 1.562.706 3.274v23.37Zm6.22 9.054c1.67-1.67 2.503-4.216 2.503-7.641v-26.195c0-3.423-.833-5.971-2.502-7.64-1.667-1.669-4.212-2.504-7.632-2.504h-23.219v79.868h8.723v-33.385h7.582l11.661 33.385h9.493l-12.06-33.519c2.34-.292 4.162-1.079 5.452-2.37Zm172.027-6.55c-1.669-1.668-4.215-2.504-7.633-2.504h-8.722c-1.627 0-2.695-.256-3.208-.77-.514-.514-.77-1.583-.77-3.21v-19.39c0-1.711.256-2.803.77-3.273.513-.471 1.581-.707 3.208-.707h5.9c1.708 0 2.8.236 3.27.707.471.47.706 1.562.706 3.274v10.914h8.852v-12.327c0-3.423-.833-5.971-2.502-7.64-1.668-1.669-4.212-2.504-7.632-2.504h-11.29c-3.42 0-5.964.835-7.631 2.505-1.67 1.668-2.503 4.216-2.503 7.64v22.213c0 3.425.834 5.97 2.503 7.641 1.667 1.67 4.21 2.503 7.632 2.503h8.723c1.71 0 2.8.237 3.272.707.468.472.705 1.562.705 3.274v21.829c0 1.627-.237 2.696-.705 3.21-.472.514-1.562.77-3.272.77h-5.773c-1.625 0-2.694-.256-3.207-.77-.513-.514-.77-1.583-.77-3.21v-10.915h-8.851v12.327c0 3.425.834 5.972 2.5 7.64 1.67 1.67 4.213 2.504 7.634 2.504h11.16c3.42 0 5.965-.835 7.634-2.504 1.667-1.668 2.501-4.215 2.501-7.64V219.42c0-3.424-.834-5.972-2.5-7.641Zm-59.164 4.687h17.19v-7.576h-17.19v-26.965h21.04v-7.576h-29.89v79.868h30.786v-7.575h-21.936v-30.176Zm-86.936 9.887 6.542-45.84 7.42 45.84h-13.962Zm-.385-52.004-12.442 79.868h8.85l2.897-20.288h16.269l3.284 20.288h8.851l-13.726-79.868h-13.983Zm58.202 0h-12.443c-3.422 0-5.965.835-7.634 2.505-1.668 1.668-2.5 4.216-2.5 7.64V244.2c0 3.424.832 5.97 2.5 7.64 1.67 1.67 4.212 2.504 7.634 2.504h12.443c3.42 0 5.966-.834 7.632-2.505 1.668-1.669 2.502-4.215 2.502-7.64v-13.482h-8.851v12.07c0 1.627-.237 2.697-.706 3.21-.471.514-1.561.771-3.271.771h-7.056c-1.625 0-2.693-.257-3.207-.77-.513-.514-.77-1.584-.77-3.21v-56.884c0-1.712.257-2.804.77-3.274.514-.471 1.582-.707 3.207-.707H303.904c1.71 0 2.8.236 3.27.707.47.47.707 1.562.707 3.274v12.07h8.851v-13.483c0-3.423-.834-5.971-2.502-7.64-1.666-1.669-4.212-2.504-7.632-2.504ZM82.683 229.691V242.66c0 1.627-.235 2.696-.705 3.21-.47.514-1.562.77-3.272.77h-7.953c-1.625 0-2.693-.256-3.207-.77-.513-.514-.77-1.583-.77-3.21v-56.756c0-1.711.257-2.803.77-3.273.514-.471 1.582-.707 3.207-.707H78.706c1.71 0 2.802.236 3.272.707.47.47.705 1.562.705 3.274v43.786Zm-1.41-55.343H68.186c-3.421 0-5.964.835-7.632 2.505-1.667 1.668-2.502 4.216-2.502 7.64v59.579c0 3.425.835 5.972 2.502 7.64 1.668 1.67 4.211 2.504 7.632 2.504h13.085c3.42 0 5.966-.835 7.632-2.504 1.668-1.668 2.502-4.215 2.502-7.64v-59.58c0-3.423-.834-5.971-2.502-7.64-1.666-1.669-4.212-2.504-7.632-2.504ZM38.707 205.68c0 1.627-.236 2.697-.705 3.21-.471.514-1.562.77-3.272.77H21.006v-27.735H34.73c1.71 0 2.8.236 3.272.707.47.47.705 1.562.705 3.274v19.774Zm0 36.981c0 1.627-.236 2.696-.705 3.21-.471.514-1.562.77-3.272.77H21.006v-29.404H34.73c1.71 0 2.8.237 3.272.707.47.47.705 1.562.705 3.273v21.444Zm-1.282-68.312H12.154v79.868h25.272c3.42 0 5.964-.835 7.632-2.504 1.668-1.668 2.502-4.215 2.502-7.64v-24.397c0-1.882-.43-3.273-1.282-4.172-.857-.9-2.012-1.478-3.464-1.734 1.452-.171 2.607-.79 3.464-1.863.853-1.07 1.282-2.545 1.282-4.43v-22.984c0-3.423-.834-5.971-2.502-7.64-1.668-1.669-4.212-2.504-7.632-2.504Z"/>
    <path fill="#FFF" d="M467.8 214.954c0-.44.12-.77.36-.99.24-.219.617-.329 1.137-.329h1.616c.517 0 .898.11 1.137.33.239.22.359.55.359.989v20.848c0 .44-.12.769-.359.987-.239.22-.62.33-1.137.33h-1.616c-.52 0-.898-.11-1.137-.33-.24-.218-.36-.548-.36-.987v-20.848Zm-1.676 29.653h7.96c3.192 0 5.456-.679 6.794-2.036 1.336-1.358 2.005-3.155 2.005-5.393v-23.602c0-2.238-.67-4.034-2.005-5.392-1.338-1.357-3.602-2.036-6.794-2.036h-7.96c-3.192 0-5.455.679-6.792 2.036-1.337 1.358-2.005 3.154-2.005 5.392v23.602c0 2.238.668 4.035 2.005 5.393 1.337 1.357 3.6 2.036 6.792 2.036Zm15.035 21.144c-1.339-1.357-3.602-2.038-6.793-2.038h-6.045v-5.631h14.243v-7.487h-24.537v20.607h13.346c.519 0 .897.111 1.136.33.24.22.36.549.36.988v7.729c0 .44-.12.769-.36.987-.239.22-.617.33-1.136.33h-1.855c-.52 0-.898-.11-1.137-.33-.24-.218-.36-.548-.36-.987v-4.673h-10.473v6.05c0 2.238.668 4.034 2.005 5.392 1.337 1.357 3.601 2.036 6.792 2.036h8.021c3.191 0 5.454-.679 6.793-2.036 1.335-1.358 2.004-3.154 2.004-5.393v-10.483c0-2.235-.669-4.033-2.004-5.391Zm-36.168-15.156h-7.24c-3.193 0-5.457.679-6.793 2.036-1.339 1.358-2.006 3.156-2.006 5.391v5.752h10.474v-4.373c0-.44.12-.77.36-.99.239-.218.617-.329 1.136-.329h1.198c.517 0 .896.111 1.136.33.24.22.36.549.36.989v4.073c0 1.317-.202 2.417-.6 3.296-.399.878-1.197 1.956-2.393 3.234l-11.371 12.221v6.83h24.656v-7.49H442.3l7.42-8.326c1.397-1.518 2.443-2.995 3.142-4.433.699-1.438 1.046-3.194 1.046-5.271v-5.513c0-2.235-.686-4.033-2.064-5.391-1.375-1.357-3.66-2.036-6.853-2.036Zm-5.703-35.641c0-.44.12-.77.359-.99.24-.219.617-.329 1.137-.329h1.197c.517 0 .898.11 1.137.33.24.22.359.55.359.989v4.073c0 1.317-.2 2.417-.598 3.296-.4.878-1.197 1.957-2.395 3.234l-11.371 12.221v6.83h24.658v-7.49h-11.61l7.42-8.326c1.397-1.518 2.444-2.995 3.142-4.433.699-1.439 1.048-3.196 1.048-5.273v-5.51c0-2.238-.688-4.034-2.065-5.392-1.376-1.357-3.66-2.036-6.853-2.036h-7.24c-3.194 0-5.458.679-6.794 2.036-1.337 1.358-2.005 3.154-2.005 5.392v5.751h10.474v-4.373Z"/>
    <path fill="#FCB11C" d="M252.578 62.76h-10.547c.204 3.769 2.805 7.06 6.464 8.101l.347.098v57.913c0 13.354 10.854 24.217 24.195 24.217h48.332v-55.93h-20.6c-9.03 0-16.376 7.355-16.376 16.395v3.422h14.933v16.297h-20.303c-4.486 0-8.138-3.653-8.138-8.145V82.582h32.875c9.986 0 18.11-8.132 18.11-18.128v-1.689h-68.816l-.476-.005Zm-58.789 53.766 9.517-33.469h1.454l9.516 33.47h-20.487Zm-52.298-15.415a2.917 2.917 0 0 1-2.915 2.918H117.12v-20.64h21.456a2.917 2.917 0 0 1 2.915 2.917v14.805Zm105.133 47.525-23.177-77.438.557-.072c4.273-.548 7.533-4.102 7.762-8.366h-10.548v.005h-34.092l-.477-.005h-10.546a8.898 8.898 0 0 0 7.94 8.394l.274.03-22.252 73.707-12.032-22.528c2.466-.172 4.346-.775 5.787-1.708 7.01-2.845 7.69-10.022 7.69-18.32V76.441c0-7.287-5.923-13.216-13.205-13.216H84.798a8.745 8.745 0 0 0 7.995 8.388l.433.039v77.197l-4.345 4.426h27.763v-3.53l.476 4.008V124.67h9.565l15.353 29.084h14.867l.239-.251a.474.474 0 0 0 .235.065h25.707l.024-.086.107.086 3.125-11.316a6.751 6.751 0 0 1 6.505-4.956h22.37a6.751 6.751 0 0 1 6.506 4.956l3.125 11.316.108-.086.023.086 1.169-.478h24.113c.108 0 .156-.07.176-.114a.188.188 0 0 0-.036-.208l-3.777-4.131Zm248.177-77.453.093.012.368-.04a8.895 8.895 0 0 0 7.954-8.395h-10.548v.005h-18.125l-.476-.005H463.52c.24 4.468 3.805 8.121 8.315 8.416l.445.03v45.789l-31.016-54.23h-22.179l-.476-.005H408.06a8.872 8.872 0 0 0 6.286 8.055l.337.103v77.666l-4.278 4.505h28.807V98.867l31.147 54.222h19.966l.49.043h8.298l.004-.009-4.281-4.497V71.74l-.515-.015.004-.542h.476Zm-111.727 54.858c0 3.988-3.241 7.232-7.225 7.232h-16.634c-3.983 0-7.225-3.244-7.225-7.232V89.814c0-3.989 3.242-7.232 7.225-7.232h16.634c3.984 0 7.225 3.243 7.225 7.232v36.227Zm-.74-63.276h-29.605c-15.33 0-22.782 7.46-22.782 22.806v44.713c0 15.347 7.452 22.805 22.782 22.805h29.605c15.33 0 22.782-7.458 22.782-22.805V85.571c0-15.346-7.452-22.806-22.782-22.806ZM62.335 121.358c.089 4.748.154 8.18-1.831 10.202-1.357 1.385-3.63 2.028-7.155 2.028H34.161V82.912h19.188c3.524 0 5.797.644 7.155 2.028 1.985 2.024 1.92 5.455 1.831 10.203-.02 1.078-.04 2.228-.04 3.453v19.308c0 1.226.02 2.376.04 3.454Zm21.502-6.909v-12.397c0-26.997-2.295-38.827-24.263-38.827H5.128a8.752 8.752 0 0 0 6.217 8.044l.337.102v77.44l-4.28 4.505H33.59l-.011-.04h25.995c9.28 0 15.27-1.675 18.855-5.272 5.479-5.499 5.451-15.69 5.414-29.797l-.006-3.758Z"/>
    <g transform="translate(0 18.79)">
      <mask id="b" fill="#fff">
        <use xlink:href="#a"/>
      </mask>
      <path fill="#01A4BB" d="M154.028 10.198a94.067 94.067 0 0 1-4.698-1.579l-8.558-3.158a88.369 88.369 0 0 0-61.164 0l-8.557 3.158a93.642 93.642 0 0 1-64.813 0 4.638 4.638 0 0 0-6.184 3.663c-.346 2.176.994 4.3 3.06 5.06a102.805 102.805 0 0 0 35.531 6.33c12.062 0 24.129-2.12 35.608-6.357l8.558-3.159a79.112 79.112 0 0 1 54.758 0l8.558 3.159.078.028c3.8 1.399 7.823-1.492 7.823-5.546v-1.599Z" mask="url(#b)"/>
    </g>
    <g transform="translate(352.539 18.787)">
      <mask id="d" fill="#fff">
        <use xlink:href="#c"/>
      </mask>
      <path fill="#01A4BB" d="M153.808 11.584a4.632 4.632 0 0 0-6.019-2.961 93.645 93.645 0 0 1-64.814 0l-8.557-3.158a88.312 88.312 0 0 0-61.165 0L4.698 8.623A92.713 92.713 0 0 1 0 10.201v1.6c0 4.052 4.02 6.945 7.821 5.546l.078-.03 8.557-3.158a79.07 79.07 0 0 1 54.76 0l8.556 3.159a102.928 102.928 0 0 0 71.014.075c2.345-.86 3.772-3.425 3.022-5.809" mask="url(#d)"/>
    </g>
    <path fill="#FFF" d="M278.2 1.64h-3.957v3.437h3.957v32.792h3.957V1.64H278.2Zm-21.298 36.23h4.77v-6.524h-4.77v6.523ZM309.751 0h-3.393v2.002h3.393V21.12h2.307V2h3.393V0H309.75Zm-12.116 1.64h-4.888c-1.552 0-2.706.379-3.462 1.136-.755.757-1.135 1.914-1.135 3.467v6.58h3.957v-5.94c0-.776.117-1.272.35-1.486.232-.212.716-.32 1.454-.32h2.56c.775 0 1.27.108 1.484.32.213.214.32.71.32 1.485v9.087c0 .738-.107 1.223-.32 1.456-.214.234-.709.35-1.484.35h-4.247v3.494h4.247c.775 0 1.27.107 1.484.32.213.213.32.709.32 1.486v9.552c0 .739-.107 1.223-.32 1.456-.214.234-.709.35-1.484.35h-2.56c-.738 0-1.222-.116-1.455-.35-.232-.233-.349-.717-.349-1.456v-5.883h-3.957v6.525c0 1.551.38 2.707 1.135 3.464.756.758 1.91 1.136 3.462 1.136h4.888c1.552 0 2.706-.378 3.463-1.136.756-.757 1.134-1.913 1.134-3.464V22.201c0-.853-.194-1.495-.582-1.922-.388-.426-.91-.7-1.57-.816.66-.078 1.182-.35 1.57-.814.388-.467.582-1.126.582-1.98V6.243c0-1.553-.378-2.71-1.134-3.467-.757-.757-1.911-1.136-3.463-1.136Zm-66.453 16.425c0 .74-.107 1.224-.32 1.457-.213.234-.707.35-1.484.35h-5.411V5.076h5.411c.777 0 1.271.108 1.484.32.213.214.32.71.32 1.485v11.183Zm-.64-16.425H220.01V37.87h3.957V23.308h6.575c1.552 0 2.706-.379 3.463-1.136.756-.757 1.134-1.913 1.134-3.464V6.243c0-1.553-.378-2.71-1.134-3.467-.757-.757-1.911-1.136-3.463-1.136Zm-25.894 19.106h7.796v-3.438h-7.796V5.077h9.543V1.64h-13.558v36.23h13.965v-3.437h-9.95V20.746ZM244.042 1.64h-5.82v3.437h5.82v32.792H248V5.077h5.818V1.64H244.042ZM324.983 0v9.575h-4.547V0h-2.34v21.12h2.34V11.58h4.547v9.542h2.342V0h-2.342ZM189.46 17.483h-3.957c-.736 0-1.222-.116-1.454-.35-.233-.232-.35-.717-.35-1.456V6.882c0-.775.117-1.27.35-1.485.232-.212.718-.32 1.454-.32h2.677c.776 0 1.271.108 1.484.32.213.214.32.71.32 1.485v4.951h4.015v-5.59c0-1.553-.378-2.71-1.135-3.467-.756-.757-1.91-1.136-3.462-1.136h-5.12c-1.552 0-2.707.379-3.463 1.136-.756.757-1.135 1.914-1.135 3.467v10.075c0 1.554.379 2.709 1.135 3.466.756.757 1.911 1.136 3.462 1.136h3.957c.775 0 1.271.108 1.484.321.213.213.32.708.32 1.484v9.902c0 .739-.107 1.223-.32 1.456-.213.234-.709.35-1.484.35h-2.618c-.738 0-1.222-.116-1.455-.35-.233-.233-.35-.717-.35-1.456v-4.95h-4.014v5.592c0 1.551.378 2.707 1.134 3.464.757.758 1.91 1.136 3.463 1.136h5.062c1.552 0 2.706-.378 3.463-1.136.756-.757 1.134-1.913 1.134-3.464V22.084c0-1.552-.378-2.708-1.134-3.465-.757-.757-1.911-1.136-3.463-1.136ZM324.214 309.17c0 .27-.072.47-.215.603-.145.134-.373.202-.685.202h-2.486v-6.215h2.486c.312 0 .54.067.685.201.143.135.215.336.215.604v4.606Zm57.612 0c0 .27-.072.47-.215.603-.145.134-.373.202-.685.202h-2.486v-6.215h2.486c.312 0 .54.067.685.201.143.135.215.336.215.604v4.606Zm3.195 4.902c.802-.205 1.449-.525 1.9-.99.804-.829 1.206-1.925 1.206-3.29v-6.068c0-1.364-.402-2.462-1.206-3.29-.805-.828-2.168-1.243-4.087-1.243h-10.695v23.469h6.301v-8.335h.406l3.663 8.335h6.771l-4.26-8.588Zm-22.603-5.559v8.772c0 .27-.073.47-.217.604-.143.135-.372.2-.685.2h-1.511c-.312 0-.54-.065-.684-.2-.144-.134-.217-.335-.217-.604v-12.72c0-.268.073-.469.217-.604.144-.134.372-.2.684-.2h1.511c.313 0 .542.066.685.2.144.135.217.336.217.604v3.948Zm1.007-9.321h-5.327c-1.923 0-3.284.414-4.09 1.241-.803.83-1.205 1.927-1.205 3.291v14.404c0 1.363.402 2.461 1.206 3.289.805.829 2.166 1.243 4.088 1.243h5.328c1.921 0 3.284-.414 4.087-1.243.805-.828 1.207-1.926 1.207-3.29V303.724c0-1.364-.402-2.462-1.207-3.29-.803-.828-2.166-1.243-4.087-1.243ZM343.372 308c0 .268-.074.47-.217.604-.145.133-.373.2-.685.2h-2.592v-5.41h2.592c.312 0 .54.068.685.202.143.134.217.335.217.602v3.802Zm0 9.651c0 .268-.074.469-.217.603-.145.133-.373.202-.685.202h-2.592v-5.447h2.592c.312 0 .54.066.685.2.143.135.217.335.217.603v3.84Zm.898-18.46c1.921 0 3.283.414 4.088 1.241.803.83 1.205 1.927 1.205 3.291v2.998c0 .95-.114 1.78-.34 2.486-.23.705-.692 1.254-1.388 1.644.696.318 1.159.793 1.387 1.426.227.633.341 1.414.341 2.34v3.51c0 1.363-.402 2.461-1.205 3.289-.805.829-2.167 1.243-4.088 1.243h-10.585V299.19Zm-37.772 0 5.942 23.468h-6.337l-.736-3.51h-5.527l-.76 3.51h-6.192l5.94-23.469h7.67Zm18.724 0c1.92 0 3.282.414 4.087 1.241.804.83 1.206 1.927 1.206 3.291v6.067c0 1.366-.402 2.462-1.206 3.291-.451.465-1.098.785-1.9.99l4.26 8.588h-6.772l-3.663-8.335h-.406v8.335h-6.3V299.19Zm-22.576 6.981-1.826 8.444h3.596l-1.77-8.444Zm-22.578-6.981v9.612h4.537v-9.612h6.194v23.468h-6.194v-9.286h-4.537v9.286h-6.193V299.19h6.193Zm-82.782 0 5.15 12.537v-12.537h5.76v23.468h-5.402l-5.148-12.32v12.32h-5.76V299.19h5.4Zm-48.358 0c1.92 0 3.282.414 4.087 1.241.804.83 1.206 1.927 1.206 3.291v6.067c0 1.366-.402 2.462-1.206 3.291-.451.465-1.098.785-1.9.99l4.26 8.588h-6.772l-3.663-8.335h-.406v8.335h-6.3V299.19Zm68.2 0 5.148 12.537v-12.537h5.76v23.468h-5.4l-5.15-12.32v12.32h-5.76V299.19h5.402Zm-45.875 0v4.568h-7.561v4.79h6.517v4.57h-6.517v4.97h7.886v4.57h-14.187V299.19h13.862Zm17.103 0v23.468h-6.3V299.19h6.3Zm68.81 4.568c.313 0 .54.067.685.201.144.135.217.336.217.604v4.606c0 .269-.073.468-.217.602-.144.134-.372.202-.684.202h-2.485v-6.215h2.485Zm-110.146 0h-2.486v6.215h2.486c.31 0 .54-.068.685-.202.143-.134.215-.333.215-.602v-4.606c0-.268-.072-.469-.215-.604-.145-.134-.374-.2-.685-.2Zm116.143 9.322c.804-.829 1.206-1.925 1.206-3.29v-6.068c0-1.364-.402-2.462-1.206-3.29-.805-.828-2.168-1.243-4.088-1.243h-10.693v23.469h6.3v-8.335h.404l3.665 8.335h6.77l-4.258-8.588c.802-.205 1.449-.525 1.9-.99Zm-25.297.037h6.519v-4.57h-6.519v-4.789h7.563v-4.568h-13.863v23.468h14.186v-4.57h-7.886v-4.97Zm-178.92-13.928h-6.301v23.469H66.11v-4.57h-7.165v-18.898Zm69.566 9.322v8.772c0 .27-.073.47-.217.604-.143.135-.372.2-.685.2H126.1c-.312 0-.54-.065-.684-.2-.144-.134-.217-.335-.217-.604v-12.72c0-.268.073-.469.217-.604.144-.134.372-.2.684-.2h1.511c.313 0 .542.066.685.2.144.135.217.336.217.604v3.948Zm1.007-9.321h-5.327c-1.922 0-3.284.414-4.089 1.241-.804.83-1.206 1.927-1.206 3.291v14.404c0 1.363.402 2.461 1.206 3.289.805.829 2.167 1.243 4.088 1.243h5.328c1.921 0 3.284-.414 4.088-1.243.805-.828 1.206-1.926 1.206-3.29V303.724c0-1.364-.401-2.462-1.206-3.29-.804-.828-2.167-1.243-4.088-1.243ZM22.902 308c0 .268-.072.47-.215.604-.145.133-.373.2-.685.2h-2.594v-5.41h2.594c.312 0 .54.068.685.202.143.134.215.335.215.602v3.802Zm0 9.651c0 .268-.072.469-.215.603-.145.133-.373.202-.685.202h-2.594v-5.447h2.594c.312 0 .54.066.685.2.143.135.215.335.215.603v3.84Zm.899-18.46H13.216v23.468H23.8c1.92 0 3.283-.414 4.088-1.243.804-.828 1.206-1.926 1.206-3.29v-3.51c0-.925-.114-1.706-.341-2.34-.23-.632-.691-1.107-1.387-1.425.696-.39 1.157-.939 1.387-1.644.227-.706.34-1.536.34-2.486v-2.998c0-1.364-.401-2.462-1.205-3.29-.805-.828-2.168-1.243-4.088-1.243Zm43.137 4.568h4.43v18.9h6.301v-18.9h4.465v-4.568H66.938v4.568Zm-28.002 10.857 1.825-8.444 1.771 8.444h-3.596Zm-1.99-15.425-5.942 23.468h6.194l.758-3.51h5.527l.735 3.51h6.338l-5.942-23.469h-7.668Zm47.457 23.468h6.3V299.19h-6.3v23.469Zm20.452-10.93-3.745-12.538h-6.877v23.468h5.617v-14.842l2.845 9.76h4.32l2.88-9.833v14.915h5.582V299.19H108.6l-3.745 12.538Z"/>
  </g>
</svg>
