<?xml version="1.0" encoding="UTF-8"?>
<svg width="338px" height="48px" viewBox="0 0 338 48" version="1.1" xmlns="http://www.w3.org/2000/svg" xmlns:xlink="http://www.w3.org/1999/xlink">
    <title>Logo/mobile/sticky/</title>
    <g id="Home-Page-UI" stroke="none" stroke-width="1" fill="none" fill-rule="evenodd">
        <g id="Desktop-Stick-Nav-1920" transform="translate(-80, -10)">
            <g id="Logo/mobile/sticky/" transform="translate(80.3652, 10.2222)">
                <g id="Logo/DBRtext" transform="translate(78.4383, 12.9227)">
                    <path d="M147.838413,9.74762197 C147.838413,10.2537139 147.764997,10.5859705 147.61902,10.7461045 C147.473042,10.9053822 147.134136,10.985021 146.604007,10.985021 L142.344198,10.9833084 L142.347613,2.35748074 L146.607422,2.3591934 C147.13755,2.3591934 147.476457,2.43369425 147.622434,2.57927061 C147.768412,2.72570331 147.840974,3.06566693 147.840974,3.59830515 L147.838413,9.74762197 Z M147.833291,21.2481546 C147.833291,21.7542465 147.759875,22.0873595 147.613898,22.2466372 C147.46792,22.4067712 147.129014,22.4855537 146.598885,22.4855537 L142.339076,22.483841 L142.343345,13.3399328 L146.603153,13.3407891 C147.133282,13.3407891 147.471335,13.41529 147.618166,13.5608663 C147.76329,13.7081554 147.836705,14.0472627 147.836705,14.5790445 L147.833291,21.2481546 Z M147.444017,0.00342532618 L139.602213,0 L139.591969,24.8387528 L147.433773,24.8421802 C148.495738,24.8430344 149.285382,24.583566 149.802705,24.0646291 C150.320882,23.5456921 150.579544,22.7535855 150.580398,21.688309 L150.583812,14.1012115 C150.583812,13.5163371 150.45064,13.0830333 150.186003,12.8030129 C149.920511,12.5238488 149.56197,12.3440192 149.111233,12.2643804 C149.56197,12.2104315 149.920511,12.0186132 150.186003,11.6855003 C150.451494,11.3523873 150.584666,10.8933936 150.584666,10.3076628 L150.588081,3.1598634 C150.588081,2.09544329 150.330273,1.30248028 149.812949,0.783543363 C149.295626,0.263750116 148.505982,0.00428165772 147.444017,0.00342532618 L147.444017,0.00342532618 Z" id="Fill-42" fill="#FFFFFF"></path>
                    <path d="M161.260822,22.252289 C161.114845,22.4115666 160.775938,22.4920618 160.24581,22.4912122 L159.011404,22.4912122 L159.011404,22.4903491 L157.776999,22.4903491 C157.273334,22.4903491 156.94211,22.409854 156.782474,22.2505763 C156.622838,22.0904423 156.544301,21.7581857 156.544301,21.2520937 L156.544301,19.2551286 L156.545154,19.2551286 L156.55113,3.60138794 C156.55113,3.06874972 156.631375,2.72964243 156.790157,2.5823534 C156.949793,2.43677704 157.281017,2.36398886 157.785535,2.36398886 L158.900427,2.36398886 L158.900427,2.36398886 L160.253493,2.36484519 C160.784475,2.36570152 161.122528,2.43934604 161.269359,2.5849224 C161.414483,2.73135509 161.487898,3.07046238 161.487898,3.60395694 L161.481923,17.2204848 L161.481923,17.2204848 L161.480215,21.2538064 C161.480215,21.7598983 161.4068,22.0930113 161.260822,22.252289 M161.05082,0.00907711437 L159.140308,0.00822078282 L159.140308,0.00822078282 L156.99077,0.00736445128 C155.928805,0.00736445128 155.139161,0.266832909 154.621838,0.784913493 C154.103661,1.30385041 153.844999,2.09681342 153.844145,3.16123353 L153.839023,16.8985042 L153.839023,16.8985042 L153.836462,21.6896791 C153.836462,22.7549556 154.095124,23.5470623 154.611594,24.0668555 C155.128917,24.5857924 155.918561,24.8461172 156.980526,24.8461172 L158.612741,24.8469736 L158.612741,24.8469736 L161.040576,24.847832 C162.10254,24.8486862 162.892184,24.5892178 163.409507,24.0702808 C163.927685,23.5513439 164.186346,22.7592372 164.1872,21.6939608 L164.188054,19.2183063 L164.188054,19.2183063 L164.194883,3.16465885 C164.194883,2.10109508 163.937075,1.30813207 163.419751,0.789195151 C162.902428,0.269401904 162.112784,0.00993344591 161.05082,0.00907711437" id="Fill-43" fill="#FFFFFF"></path>
                    <path d="M170.626597,16.1864645 L172.662597,1.93111327 L174.958967,16.1881771 L170.626597,16.1864645 Z M170.513912,0.0129306063 L166.641669,24.8499707 L169.388776,24.8516834 L170.290251,18.5422326 L175.33885,18.5448016 L176.35557,24.8542524 L179.102677,24.855965 L174.853112,0.0146432694 L170.513912,0.0129306063 Z" id="Fill-44" fill="#FFFFFF"></path>
                    <polygon id="Fill-45" fill="#FFFFFF" points="178.852637 2.37246654 182.833296 2.37417921 182.82476 24.8571639 185.531744 24.8580202 185.541135 2.37503554 189.521794 2.3767482 189.522647 0.0209801228 178.853491 0.0158421336"></polygon>
                    <path d="M198.120375,2.38068733 L201.822738,2.38239999 C202.35372,2.38239999 202.691773,2.4560445 202.837751,2.6024772 C202.982875,2.74890989 203.05629,3.08801718 203.05629,3.6206554 L203.053729,10.8883412 C203.052875,11.3944332 202.97946,11.7275461 202.834336,11.8868238 C202.687505,12.0469578 202.349452,12.1257403 201.819324,12.1257403 L198.116107,12.1240276 L198.120375,2.38068733 Z M204.982168,13.7048157 C205.500345,13.1858788 205.759006,12.3937721 205.75986,11.3284956 L205.763275,3.18221365 C205.764128,2.11779354 205.505467,1.32568686 204.988143,0.805893616 C204.47082,0.2869567 203.680322,0.026631911 202.620065,0.026631911 L198.121229,0.0249192479 L198.121229,0.0240629164 L195.414244,0.0232065848 L195.404,24.8619594 L198.110985,24.863672 L198.115253,14.480652 L200.467965,14.4815084 L204.0824,24.866241 L207.028412,24.8670973 L203.289342,14.4386918 C204.01496,14.3479207 204.58265,14.1064352 204.982168,13.7048157 L204.982168,13.7048157 Z" id="Fill-46" fill="#FFFFFF"></path>
                    <path d="M213.02723,16.2039336 L215.063231,1.94858243 L217.360455,16.2056463 L213.02723,16.2039336 Z M212.913692,0.0303997698 L209.042303,24.8682962 L211.78941,24.8691525 L212.690885,18.5597017 L217.739484,18.5622707 L218.756204,24.8717215 L221.502457,24.8734342 L217.253746,0.0329687645 L212.913692,0.0303997698 Z" id="Fill-47" fill="#FFFFFF"></path>
                    <path d="M230.975538,0.0381923869 L229.383445,0.0373360553 L229.383445,0.0373360553 L227.114392,0.0364797238 C226.052428,0.0364797238 225.262784,0.295948182 224.745461,0.814028766 C224.228137,1.33296568 223.968622,2.12592869 223.967768,3.1903488 L223.960085,21.759042 C223.960085,22.8243184 224.218747,23.6164251 224.73607,24.135362 C225.25254,24.6551553 226.042184,24.9146237 227.104148,24.9154801 L228.776486,24.9163364 L228.776486,24.9163364 L230.965294,24.9171927 C232.026404,24.9171927 232.816048,24.6577243 233.334225,24.1396437 C233.851549,23.6207068 234.111064,22.8286001 234.111918,21.7633237 L234.113625,17.5707244 L231.366518,17.5698681 L231.364811,21.3231692 C231.364811,21.8292612 231.291395,22.1615178 231.145418,22.3216518 C230.99944,22.4809295 230.660534,22.5605683 230.130405,22.5605683 L229.095758,22.559712 L229.095758,22.559712 L227.940744,22.5588557 C227.436226,22.5588557 227.105002,22.4792168 226.946219,22.3190828 C226.786583,22.1598052 226.707192,21.8266922 226.707192,21.3214566 L226.714875,3.63050321 C226.714875,3.09786499 226.794266,2.7587577 226.953903,2.61146868 C227.113539,2.46674865 227.445616,2.39310413 227.950134,2.39310413 L228.785876,2.39310413 L228.785876,2.39310413 L230.138942,2.39396046 C230.66907,2.3948168 231.007977,2.46846131 231.153101,2.61403767 C231.299078,2.76047037 231.372494,3.10043399 231.372494,3.63307221 L231.37164,7.38637337 L234.117893,7.3872297 L234.119603,3.19377413 C234.120455,2.13021035 233.860939,1.33724734 233.344469,0.818310424 C232.826292,0.298517176 232.036648,0.0390487184 230.975538,0.0381923869" id="Fill-48" fill="#FFFFFF"></path>
                    <polygon id="Fill-49" fill="#FFFFFF" points="240.007186 13.1398937 245.341764 13.1424627 245.342618 10.7866947 240.008039 10.7841257 240.011454 2.39807086 246.540315 2.40063985 246.541169 0.0440154414 239.01693 0.0414464467 239.01693 0.0414464467 237.265201 0.0405901152 237.254957 24.8793429 240.002064 24.8810555 240.002064 24.8810555 246.809221 24.8836245 246.810075 22.5278565 240.002917 22.5244311"></polygon>
                    <path d="M258.367644,11.690467 C257.850321,11.1715301 257.060677,10.9112053 255.999566,10.9103489 L253.292582,10.9094926 C252.788063,10.9094926 252.45684,10.8289974 252.297204,10.6697198 C252.138421,10.5095858 252.058176,10.1773291 252.05903,9.67123719 L252.061591,3.64180679 C252.061591,3.10916857 252.140982,2.76920495 252.300618,2.62277225 C252.460254,2.47719589 252.791478,2.40355138 253.295996,2.40355138 L255.127117,2.40440771 C255.658099,2.40440771 255.996152,2.47805222 256.142129,2.62448492 C256.287253,2.77091761 256.360668,3.1100249 256.360668,3.64266312 L256.359815,7.03716136 L259.106068,7.0380177 L259.107776,3.2050777 C259.108629,2.14065759 258.849967,1.34769458 258.332644,0.827901337 C257.814467,0.309820753 257.024823,0.0486396317 255.963712,0.0486396317 L252.460254,0.0469248629 C251.399144,0.0460706371 250.6095,0.306395427 250.092176,0.824476011 C249.573999,1.34426926 249.315337,2.13637594 249.314484,3.20079605 L249.311921,10.1096789 C249.311069,11.1749554 249.569731,11.9662057 250.087054,12.485999 C250.604378,13.0049359 251.394022,13.2652607 252.455132,13.2652607 L255.162117,13.266117 C255.693099,13.2669733 256.031152,13.3406179 256.177983,13.4861942 C256.323107,13.6326269 256.396523,13.9725905 256.396523,14.5043724 L256.393108,21.2933689 C256.393108,21.7994609 256.319692,22.1317175 256.173715,22.2918515 C256.027737,22.4511292 255.688831,22.5316243 255.158702,22.530768 L253.366851,22.5299117 C252.862332,22.5299117 252.531109,22.4494165 252.371473,22.2901388 C252.21269,22.1308612 252.133299,21.7977482 252.133299,21.2916562 L252.135006,17.897158 L249.387899,17.8963017 L249.387046,21.730098 C249.386192,22.7953744 249.644,23.5874811 250.162177,24.106418 C250.678647,24.6262113 251.468291,24.8856797 252.530255,24.8856797 L255.993591,24.8873945 C257.054701,24.8882487 257.845199,24.6287803 258.362522,24.1098434 C258.8807,23.5909064 259.139361,22.7996561 259.140215,21.7343797 L259.142778,14.066787 C259.14363,13.0023669 258.884968,12.2094039 258.367644,11.690467" id="Fill-50" fill="#FFFFFF"></path>
                    <path d="M101.456864,17.5345016 C101.456864,17.7854067 101.406497,18.0243232 101.314301,18.2418315 C101.222958,18.4593397 101.089786,18.6554396 100.925882,18.8198552 C100.843929,18.9020631 100.754294,18.9757076 100.657829,19.0416451 C100.369289,19.2368887 100.020139,19.3516371 99.6453779,19.3516371 L95.1798349,19.3516371 C94.8050741,19.3516371 94.4559235,19.2368887 94.1673833,19.0416451 C94.0709187,18.9757076 93.9812835,18.9020631 93.8993312,18.8198552 C93.7354268,18.6554396 93.6022544,18.4593397 93.5109118,18.2418315 C93.4187156,18.0243232 93.3683491,17.7854067 93.3683491,17.5345016 L93.3683491,7.78859229 C93.3683491,6.78497172 94.1793347,5.97145676 95.1798349,5.97145676 L99.6453779,5.97145676 C100.020139,5.97145676 100.369289,6.08534885 100.657829,6.28144878 C101.140152,6.60771109 101.456864,7.16090127 101.456864,7.78859229 L101.456864,17.5345016 Z M106.434608,2.36544462 C105.751673,1.4851358 104.775929,0.897692358 103.507377,0.603970638 C102.873954,0.457537944 102.166263,0.383893431 101.386009,0.383893431 L93.4392036,0.383893431 C92.1382119,0.383893431 91.0403935,0.587700339 90.1466019,0.995314154 C89.0735399,1.4851358 88.2932864,2.26782283 87.8049876,3.34423158 C87.3986411,4.24166704 87.1954679,5.34205307 87.1954679,6.64710235 L87.1954679,18.6759915 C87.1954679,19.9810408 87.3986411,21.0814269 87.8049876,21.9788623 C88.2932864,23.0552711 89.0735399,23.8379581 90.1466019,24.3277797 C91.0403935,24.7353936 92.1382119,24.9392005 93.4392036,24.9392005 L101.386009,24.9392005 C102.166263,24.9392005 102.873954,24.8655559 103.507377,24.7191233 C104.775929,24.4254015 105.751673,23.8379581 106.434608,22.9576493 C106.661684,22.6639275 106.857174,22.3376652 107.019371,21.9788623 C107.426572,21.0814269 107.629745,19.9810408 107.629745,18.6759915 L107.629745,6.64710235 C107.629745,5.34205307 107.426572,4.24166704 107.019371,3.34423158 C106.857174,2.98542866 106.661684,2.65916634 106.434608,2.36544462 L106.434608,2.36544462 Z M66.6826534,0.382180768 L63.5923713,0.382180768 C63.5923713,0.513199494 63.6051763,0.639936563 63.6239571,0.764960968 C63.6273717,0.78808192 63.6307864,0.811202872 63.6350548,0.834323823 C63.6563965,0.95421024 63.6862749,1.07152766 63.7238364,1.18541976 C63.7306657,1.20425905 63.7383487,1.22309834 63.7451781,1.24193764 C63.830545,1.47914148 63.9500587,1.69921868 64.0977434,1.89703127 C64.1062801,1.90901991 64.1148168,1.92100855 64.1242072,1.93214086 C64.2010374,2.03147532 64.2838433,2.12395913 64.3743322,2.21044861 C64.3794542,2.2155866 64.3854299,2.22072459 64.3905519,2.22586258 C64.5800664,2.40397954 64.7968984,2.5521249 65.0333647,2.66516066 C65.0384867,2.66772966 65.0436088,2.67029865 65.0487308,2.67201132 C65.1690981,2.7285292 65.2937338,2.77648377 65.4234915,2.81330602 C65.4234915,2.81330602 65.4234915,2.81330602 65.4234915,2.81330602 L65.4234915,18.2957803 C65.4234915,21.965161 68.3891379,24.9392005 72.0462563,24.9392005 L85.1483694,24.9392005 L85.1483694,9.63655577 L79.4911044,9.63655577 C76.992415,9.63655577 74.9666582,11.6686305 74.9666582,14.175113 L74.9666582,15.2241191 L78.9754883,15.2241191 L78.9754883,19.3516371 L73.6537152,19.3516371 C72.5174816,19.3516371 71.5963727,18.4276554 71.5963727,17.2887344 L71.5963727,5.97145676 L80.2935533,5.97145676 L80.2935533,5.97145676 C80.9824643,5.97145676 81.6389358,5.83101838 82.2356505,5.57754425 C82.3850426,5.51417571 82.5301663,5.44395653 82.6718754,5.36688669 C83.802987,4.75032797 84.6694611,3.70817249 85.0587342,2.45450311 C85.2047116,1.98437709 85.2832492,1.4851358 85.2832492,0.966198881 L85.2832492,0.383893431 L66.6826534,0.383893431 L66.6826534,0.382180768 Z M110.60905,3.03937755 L110.575757,2.90578983 C110.586855,2.90664616 110.597952,2.90750249 110.60905,2.90750249 L110.60905,3.03937755 Z M130.876008,0.382180768 L130.876008,0.383893431 L126.138144,0.383893431 L126.138144,0.382180768 L123.047862,0.382180768 C123.047862,0.467813923 123.052984,0.552590745 123.060667,0.635654905 C123.064082,0.664770178 123.070058,0.69388545 123.073472,0.722144391 C123.081155,0.776093278 123.087131,0.829185834 123.098229,0.881422058 C123.105058,0.917387983 123.115302,0.951641245 123.123839,0.986750838 C123.134083,1.03128008 123.144327,1.07580932 123.157132,1.1186259 C123.169083,1.15801715 123.184449,1.19569574 123.198108,1.23423065 C123.210913,1.27105291 123.223718,1.3087315 123.23823,1.34469742 C123.255304,1.38665767 123.274938,1.42604892 123.293719,1.4662965 C123.309085,1.49798077 123.322744,1.52966504 123.338963,1.56049297 C123.362012,1.60245322 123.386769,1.64355713 123.411525,1.68551738 C123.426891,1.71120732 123.442257,1.7377536 123.458477,1.76258722 C123.486648,1.80626013 123.51738,1.84822037 123.548112,1.89018062 C123.563478,1.91073257 123.578844,1.93128453 123.59421,1.95183649 C123.629211,1.9955094 123.665919,2.03746964 123.70348,2.07942989 C123.717992,2.09484386 123.731651,2.11111416 123.746164,2.12652812 C123.787993,2.17020103 123.830677,2.21130495 123.875068,2.25155253 C123.887873,2.26268484 123.899824,2.27467348 123.913483,2.28580579 C123.961288,2.32776604 124.010801,2.36715729 124.061167,2.40569221 C124.072265,2.41339919 124.082509,2.42196251 124.092753,2.42966949 C124.147388,2.46906074 124.202877,2.505883 124.260926,2.54099259 C124.268609,2.54613058 124.277146,2.55126857 124.284829,2.55555023 C124.345439,2.59151615 124.407757,2.62576941 124.471782,2.65659735 C124.476904,2.65916634 124.48288,2.66173534 124.488856,2.66430433 C124.554588,2.6959886 124.622882,2.72510387 124.692029,2.75079382 C124.695444,2.75250648 124.699712,2.75336281 124.703127,2.75507548 C124.774835,2.78162175 124.847397,2.80388638 124.921666,2.82443833 C124.923373,2.82443833 124.925081,2.82529466 124.926788,2.82529466 C125.003618,2.84584662 125.080448,2.86211692 125.158986,2.87496189 C125.15984,2.87496189 125.15984,2.87496189 125.15984,2.87496189 C125.240084,2.8886632 125.320329,2.89722651 125.403135,2.90322083 L125.403135,14.6186927 L117.278767,0.383893431 L111.251009,0.383893431 L111.251009,0.382180768 L111.251009,0.382180768 L108.160727,0.382180768 C108.160727,0.5106305 108.173532,0.634798574 108.191459,0.757253985 C108.195727,0.782087599 108.198288,0.806064883 108.202557,0.830898497 C108.223899,0.948215919 108.25207,1.06296435 108.288777,1.17428745 C108.295607,1.1948394 108.30329,1.2136787 108.310973,1.23337432 C108.348534,1.33955943 108.392071,1.44231922 108.442438,1.54079735 C108.44756,1.55107333 108.451828,1.5613493 108.457804,1.57162528 C108.513292,1.67609773 108.577318,1.77457586 108.645611,1.86962866 C108.65927,1.88761162 108.672928,1.90645092 108.687441,1.92443388 C108.758295,2.01777402 108.835126,2.10597617 108.918785,2.18818399 C108.927322,2.19674731 108.936712,2.20445429 108.945249,2.21216128 C109.026347,2.29008745 109.113422,2.3620193 109.204764,2.42881316 C109.216716,2.43737647 109.228667,2.44765245 109.241472,2.45621577 C109.337937,2.52386596 109.439523,2.58380917 109.545378,2.63775806 C109.564159,2.6471777 109.582086,2.65574102 109.600867,2.66430433 C109.71099,2.71654056 109.823674,2.76363879 109.942334,2.80046105 L109.942334,23.5476617 L108.827443,24.7199796 C108.749759,24.8021874 108.807808,24.9392005 108.921346,24.9392005 L110.60905,24.9392005 L116.114362,24.9392005 L116.781931,24.9392005 L116.781931,10.7044012 L124.9413,24.9392005 L130.374904,24.9392005 L130.37405,24.9503328 L132.733592,24.9503328 L132.733592,24.9503328 C132.762616,24.9503328 132.787373,24.9417695 132.807861,24.9280682 C132.868471,24.8852516 132.886398,24.7936241 132.827495,24.7311119 L131.713457,23.558794 L131.713457,2.89637018 C131.842361,2.88266888 131.967851,2.85697893 132.089925,2.82443833 C132.119804,2.81673135 132.149682,2.81073703 132.178707,2.80217371 C132.222244,2.78847241 132.264074,2.77220211 132.305903,2.75678814 C132.339197,2.7447995 132.371636,2.73452352 132.404075,2.72082222 C132.443344,2.70455192 132.481759,2.68571262 132.521028,2.66687333 C132.553468,2.65145936 132.586761,2.63690172 132.618346,2.61977509 C132.655054,2.60007947 132.690908,2.57867118 132.726762,2.55726289 C132.758348,2.5384236 132.790788,2.5195843 132.82152,2.49988868 C132.855666,2.47762406 132.888106,2.45364677 132.921399,2.42966949 C132.952131,2.40740487 132.982863,2.38514025 133.012741,2.36116297 C133.043474,2.33632935 133.073352,2.31063941 133.10323,2.28494946 C133.132255,2.25925951 133.16128,2.23271324 133.189451,2.20616696 C133.217622,2.17876435 133.244086,2.15136174 133.271403,2.1231028 C133.298721,2.09398752 133.325184,2.06487225 133.350794,2.03490065 C133.375551,2.00578538 133.400307,1.9766701 133.42421,1.9466985 C133.448966,1.9141579 133.472869,1.8816173 133.496772,1.84822037 C133.518114,1.81824877 133.539455,1.78742083 133.559943,1.75573657 C133.582992,1.72062697 133.604334,1.68466105 133.624822,1.64869512 C133.643603,1.61701085 133.66153,1.58532659 133.678603,1.55278599 C133.699091,1.51425107 133.717018,1.47485982 133.734946,1.43546857 C133.750312,1.40292797 133.765678,1.37038737 133.778483,1.33699044 C133.795556,1.29588653 133.810068,1.25306995 133.825434,1.21025337 C133.836532,1.17771277 133.848484,1.14517217 133.858728,1.11177524 C133.872386,1.06553334 133.883484,1.01843511 133.894582,0.971336871 C133.902265,0.939652603 133.910801,0.908824668 133.917631,0.876284069 C133.927875,0.823191513 133.934704,0.769242626 133.941533,0.715293739 C133.945802,0.687891129 133.950924,0.66048852 133.953485,0.633085911 C133.962022,0.550878082 133.96629,0.466957591 133.96629,0.382180768 L130.876008,0.382180768 Z M50.7736763,14.9749266 L53.3278542,5.97145676 L53.717981,5.97145676 L56.2730126,14.9749266 L50.7736763,14.9749266 Z M36.7342345,10.8277129 C36.7342345,10.9904159 36.6855754,11.1411303 36.6010621,11.2661547 C36.4602067,11.4750996 36.222033,11.612969 35.9522736,11.612969 L30.1925683,11.612969 L30.1925683,6.05965891 L35.9522736,6.05965891 C36.222033,6.05965891 36.4602067,6.19752828 36.6010621,6.40647318 C36.6855754,6.53149759 36.7342345,6.68221194 36.7342345,6.84491493 L36.7342345,10.8277129 Z M65.0700725,23.5476617 L58.900606,2.8886632 C59.3590263,2.82957632 59.7790315,2.6471777 60.1256212,2.3757206 C60.1315968,2.37058261 60.1384262,2.36630096 60.1444019,2.3620193 C60.1905,2.32519704 60.2348908,2.28580579 60.2775742,2.24555821 C60.2920866,2.23271324 60.306599,2.21986826 60.3211114,2.20702329 C60.3586728,2.17020103 60.3945269,2.13252244 60.430381,2.09398752 C60.4474544,2.0742919 60.4653814,2.05545261 60.4824548,2.03575698 C60.5140406,1.99979106 60.543919,1.96211247 60.5729438,1.92443388 C60.5917245,1.89960026 60.6105052,1.87476665 60.6284322,1.8490767 C60.6540423,1.81311078 60.6787987,1.77714485 60.7027015,1.73946627 C60.7214822,1.70949466 60.7394092,1.67952306 60.7573363,1.64869512 C60.7778243,1.61358553 60.7983124,1.5776196 60.8170931,1.54079735 C60.8350202,1.50568775 60.8512399,1.47057816 60.8674596,1.43546857 C60.8836793,1.40035897 60.899899,1.36524938 60.9144114,1.32842712 C60.9306311,1.2898922 60.9442898,1.24964462 60.9579485,1.20939704 C60.9698999,1.17514378 60.9818512,1.14089052 60.9929489,1.10578092 C61.005754,1.06125168 61.0168517,1.01586611 61.0270957,0.970480539 C61.0347787,0.93793994 61.0441691,0.906255673 61.0501448,0.872858743 C61.0603888,0.820622519 61.0680718,0.766673631 61.0749012,0.712724744 C61.0783159,0.685322135 61.0834379,0.658775857 61.0859989,0.631373248 C61.0945356,0.550021751 61.0988039,0.466957591 61.0988039,0.382180768 L58.0085218,0.382180768 L58.0085218,0.383893431 L48.9852396,0.383893431 L48.9852396,0.382180768 L48.9852396,0.382180768 L45.8949575,0.382180768 C45.8949575,0.466957591 45.8992258,0.550878082 45.9069088,0.633085911 C45.9103235,0.66048852 45.9154455,0.687891129 45.9188602,0.715293739 C45.9256896,0.769242626 45.9333726,0.823191513 45.9436166,0.876284069 C45.9495923,0.908824668 45.9589826,0.939652603 45.9666657,0.972193202 C45.9777634,1.01843511 45.9880074,1.06553334 46.0016661,1.11091891 C46.0119101,1.14517217 46.0238615,1.17771277 46.0358129,1.21025337 C46.0503252,1.25306995 46.0648376,1.29503019 46.081911,1.33699044 C46.0955697,1.37038737 46.1109357,1.40292797 46.1263018,1.4363249 C46.1442288,1.47485982 46.1613022,1.51339474 46.1817903,1.55192966 C46.1988637,1.58447026 46.2176444,1.61701085 46.2364251,1.64955145 C46.2569132,1.68466105 46.2774012,1.71977064 46.2995966,1.75488023 C46.3209383,1.7865645 46.3422801,1.81824877 46.3644755,1.8490767 C46.3875245,1.8816173 46.4114273,1.91330157 46.43533,1.94498584 C46.4600864,1.97581377 46.4848428,2.00578538 46.5104529,2.03490065 C46.5352093,2.06401592 46.561673,2.09313119 46.5881368,2.1205338 C46.6154542,2.14964908 46.6436253,2.17876435 46.67265,2.20616696 C46.6991137,2.23271324 46.7264312,2.25669052 46.7546022,2.28152413 C46.7853343,2.30892674 46.8169201,2.33632935 46.8493595,2.3620193 C46.8775306,2.38428392 46.9065553,2.40483588 46.9355801,2.42624416 C46.9697268,2.45107778 47.0038736,2.47676773 47.0397277,2.49988868 C47.0687525,2.51872797 47.0986309,2.5358546 47.1276556,2.55383756 C47.1660707,2.57610218 47.2036322,2.59922314 47.242901,2.61977509 C47.271072,2.63518906 47.3009505,2.64803403 47.3299752,2.66259167 C47.371805,2.6822873 47.4136348,2.70283925 47.4571719,2.72082222 C47.4836356,2.73195453 47.510953,2.74051784 47.5382705,2.75079382 C47.5860759,2.76877678 47.6330277,2.78675974 47.6816869,2.80217371 C47.6961992,2.80559904 47.7098579,2.80902436 47.7243703,2.81244969 C47.8601037,2.85184094 47.9992518,2.88095621 48.1435218,2.89637018 L45.3392189,12.2851892 L42.2574735,22.6048407 L39.0280433,16.5445823 C42.3863775,16.3108038 42.7730896,14.1074628 42.7730896,11.1565443 L42.7730896,4.19114348 C42.7730896,4.06355008 42.7662603,3.93852567 42.7543089,3.8143576 C42.7286988,3.56687778 42.679186,3.32624862 42.6083315,3.09589543 C42.4649151,2.63433273 42.2335708,2.21216128 41.9347866,1.84822037 C41.7845408,1.66582175 41.6180753,1.4988371 41.4370975,1.34897908 C40.8019677,0.823191513 39.9884211,0.507205174 39.1006052,0.507205174 L24.4055455,0.507205174 L23.6509021,0.507205174 L21.386118,0.507205174 L21.386118,0.507205174 L21.386118,0.533751451 C21.386118,0.537176778 21.386118,0.539745772 21.386118,0.542314767 C21.3869716,0.622809932 21.3903863,0.703305097 21.398923,0.782087599 C21.401484,0.811202872 21.4074597,0.839461813 21.4108744,0.868577085 C21.4177037,0.919956978 21.4245331,0.973049534 21.4347771,1.02357309 C21.4416065,1.05697002 21.4509968,1.08951062 21.4586798,1.12290755 C21.4697775,1.16743679 21.4800216,1.21282237 21.4928266,1.25649527 C21.5030706,1.29160487 21.5158757,1.3250018 21.527827,1.35925506 C21.5423394,1.40035897 21.5559981,1.44060656 21.5722178,1.47999781 C21.5867302,1.5151074 21.6029499,1.54936066 21.6191696,1.58361392 C21.636243,1.62043618 21.6524627,1.65640211 21.6712434,1.69236803 C21.6891705,1.72747762 21.7096586,1.76173089 21.7301466,1.79598415 C21.7489273,1.82852475 21.7677081,1.86106534 21.7881961,1.89274961 C21.8112452,1.92785921 21.8351479,1.96125614 21.8590506,1.99465307 C21.8795387,2.02376834 21.9008804,2.05202728 21.9230758,2.08028622 C21.9495396,2.11368315 21.9777107,2.14708008 22.0058817,2.17876435 C22.0280771,2.20445429 22.0502725,2.22928791 22.0733216,2.25326519 C22.1040537,2.28580579 22.1356394,2.31749006 22.1680789,2.34831799 C22.1911279,2.36972628 22.214177,2.39113457 22.2380797,2.41168653 C22.2730802,2.44251446 22.3089343,2.47248607 22.345642,2.50160134 C22.3686911,2.5195843 22.3925938,2.53671093 22.4164966,2.5546939 C22.4557653,2.58295284 22.4958878,2.61035545 22.5368639,2.63690172 C22.5590593,2.65145936 22.582962,2.66516066 22.6060111,2.6797183 C22.6495482,2.70540825 22.693939,2.73109819 22.7400371,2.75421915 C22.7613789,2.76535146 22.7844279,2.77562743 22.8066233,2.78675974 C22.8552825,2.8098807 22.9039416,2.83214532 22.9534544,2.85269727 C22.9739425,2.86040426 22.9952842,2.86725491 23.0157723,2.87496189 C23.0686997,2.89465752 23.1224809,2.91349681 23.1779694,2.92976711 C23.1950428,2.9349051 23.2129698,2.93918676 23.2308969,2.94346842 C23.2898,2.95973872 23.3495569,2.97429635 23.4101674,2.98628499 C23.4221187,2.98885399 23.4349238,2.98971032 23.4468751,2.99142298 C23.514315,3.00341162 23.5817549,3.0136876 23.6509021,3.01968192 L23.6509021,23.6170246 L22.5197905,24.7687905 C22.4395456,24.8509983 22.4975951,24.9888677 22.6119868,24.9888677 L30.1925683,24.9888677 L30.1925683,17.1654227 L32.7604049,17.1654227 L36.8819192,24.9888677 L40.8719686,24.9888677 L40.8719686,24.9888677 L40.9368474,24.9212175 C40.9547745,24.9323498 40.9761162,24.9392005 41.0000189,24.9392005 L47.9002262,24.9392005 L47.9062018,24.9160795 C47.9079092,24.9169358 47.9079092,24.9169358 47.9087628,24.9177922 C47.9249826,24.9306371 47.9352266,24.9392005 47.9352266,24.9392005 L48.7743833,21.8949418 C48.9912152,21.1071168 49.7057363,20.5616336 50.5209903,20.5616336 L56.5256986,20.5616336 C56.6272852,20.5616336 56.7280182,20.5701969 56.8261901,20.5864672 C56.9235084,20.6035939 57.0191193,20.6275711 57.1121693,20.6592554 C57.6662005,20.849361 58.1092548,21.3040731 58.2723056,21.8949418 L59.1106086,24.9392005 C59.1106086,24.9392005 59.1217063,24.9306371 59.137926,24.9177922 C59.1387797,24.9169358 59.1387797,24.9169358 59.1396334,24.9160795 L59.1464627,24.9392005 L65.9322783,24.9392005 C66.0492309,24.9392005 66.1243538,24.834728 66.1106951,24.7336809 C66.1055731,24.6994276 66.0910607,24.666887 66.064597,24.6377718 L65.0700725,23.5476617 Z M15.3668972,17.1354511 C15.3651899,17.3914942 15.3549459,17.6252727 15.3310431,17.8384993 C15.3071404,18.0517259 15.269579,18.2435441 15.2106758,18.4139541 C14.9759168,19.095594 14.4073732,19.436414 13.0739421,19.436414 L8.05095316,19.436414 L8.05095316,6.05965891 L13.0739421,6.05965891 C15.7399506,6.05965891 15.3472628,7.42379506 15.3472628,10.151211 L15.3472628,15.3457182 L15.3472628,15.3457182 C15.3472628,16.0273581 15.3720193,16.6242212 15.3668972,17.1354511 L15.3668972,17.1354511 Z M21.386118,11.0803307 C21.386118,6.89543849 21.2153842,3.95308331 19.7880494,2.25240886 C19.4875579,1.89446228 19.1307242,1.59132091 18.7090117,1.34384109 C18.4981555,1.21967302 18.2702258,1.11006258 18.0252228,1.01329712 C17.1672853,0.675902488 16.0916623,0.507205174 14.7445725,0.507205174 L3.01857389,0.507205174 L1.77648537,0.507205174 L1.76111933,0.445549302 L1.76111933,0.507205174 L0,0.507205174 L0,0.533751451 C0,0.66048852 0.0119513672,0.783800262 0.0298784181,0.905399342 C0.0332930944,0.929376625 0.0367077708,0.953353908 0.0409761162,0.97647486 C0.0614641743,1.09293595 0.0896352542,1.20682805 0.126343025,1.31643848 C0.132318709,1.33613411 0.14000173,1.3549734 0.147684752,1.37466903 C0.184392523,1.47999781 0.227929646,1.58190126 0.278296122,1.67952306 C0.283418137,1.6889427 0.287686482,1.69921868 0.292808497,1.70863833 C0.347443318,1.81225445 0.410614831,1.90987624 0.479762027,2.00321638 C0.492567063,2.02205568 0.5053721,2.03918231 0.519030805,2.05716527 C0.589885339,2.14964908 0.665861888,2.23699489 0.748667789,2.31834639 C0.75720448,2.32605337 0.76659484,2.33376036 0.774277862,2.34146734 C0.856230094,2.41939351 0.942450672,2.49132536 1.03379326,2.55726289 C1.04489096,2.56496987 1.05598866,2.57438952 1.06708636,2.58209651 C1.16355097,2.6497467 1.26428392,2.70883357 1.36928522,2.76278246 C1.38721227,2.77134578 1.40428565,2.77905276 1.4222127,2.78761608 C1.53148234,2.8398523 1.64331299,2.8860942 1.76111933,2.92206013 C1.76111933,2.92206013 1.76111933,2.92206013 1.76111933,2.92206013 L1.76111933,23.6084612 L0.647081168,24.7816355 C0.568543612,24.8638433 0.62659311,25 0.740131099,25 L7.93314683,25 L7.93058582,24.9888677 L14.7445725,24.9888677 C16.2786158,24.9888677 17.4592402,24.8201704 18.3675441,24.4836321 C18.6270595,24.3868666 18.8643795,24.2763998 19.0812114,24.1530881 C19.2988971,24.02892 19.4952409,23.8910507 19.6736578,23.73948 C20.0304915,23.4371949 20.3130559,23.0792483 20.5375709,22.6656402 C20.5930594,22.5628804 20.6459869,22.455839 20.694646,22.3462285 C21.4783142,20.5838982 21.386118,17.9404027 21.386118,14.4157421 L21.386118,11.0803307 Z" id="Fill-51" fill="#FCB11C"></path>
                </g>
                <g id="Dragon-head">
                    <path d="M55.5501391,41.5310485 L55.5501391,41.5310485 C55.3540347,40.7734964 54.6962409,40.329257 53.5955888,40.2107063 C53.5520822,40.2061466 53.5085756,40.201587 53.4624715,40.1976787 L53.3910428,40.1911649 C52.5572745,40.1012748 50.7183088,39.5945032 47.7728469,37.2085074 C47.1579103,36.7102036 46.6202466,36.2203677 46.1001154,35.7468163 C44.3092019,34.1144642 42.6176392,32.5733051 38.4078884,31.1350635 C37.6150293,30.8640905 37.0273654,30.6712828 36.5442474,30.5123467 C35.115023,30.0433549 35.0293085,30.0153456 34.0020332,29.3848122 C33.205278,28.8956277 32.235795,27.5472763 32.0630673,26.3207324 C31.9643658,25.6218044 32.1221584,25.0570601 32.5442373,24.5939307 C33.6481362,23.3830199 34.5513852,23.0241109 35.3474911,22.7068901 C35.7669727,22.5401374 36.1637269,22.3825041 36.5299616,22.1226044 L36.6585334,22.0314116 L36.9189236,20.6986932 L36.9572354,20.5573443 L36.8721703,20.4238119 C36.8546377,20.3847293 36.8221701,20.2316556 36.8007415,20.1300407 C36.7156764,19.7307463 36.5994423,19.1835892 36.2254154,18.3960738 L36.1286619,18.2286697 L36.1091813,18.1987064 C36.0429474,18.1075135 35.9104795,17.8945131 35.7611285,17.6535034 C34.7345026,16.0022614 32.8241082,12.928411 30.4241022,12.6698141 C29.7143601,12.593603 29.0435792,12.7603556 28.4266946,13.1642097 C28.1838368,13.3237972 27.9539661,13.375256 27.6338354,13.3400816 C27.0857821,13.2814576 26.385131,12.9668423 25.642272,12.633337 C24.6046071,12.1682535 23.4286301,11.6406377 22.0649903,11.4940778 C20.978624,11.3774812 18.567579,11.625656 17.2273159,13.404568 L16.7487432,14.039661 L17.5422517,14.0370555 C18.3156303,14.0416152 19.118879,14.1315053 19.7097896,14.2976065 C20.398103,14.491717 21.0786242,14.9815529 21.7312232,15.7521325 C21.8987561,15.9501512 22.0760293,16.1748765 22.2617441,16.4250054 C22.0591461,16.4230513 21.8481067,16.4106751 21.6305736,16.3872255 C20.6461556,16.281051 19.5403087,15.9625274 18.3435524,15.4401227 C17.164978,14.9255344 16.0266635,14.6063595 14.9597777,14.491717 C12.0409392,14.1777531 10.2889868,15.4329575 9.51430954,16.1989774 C8.91625609,16.7493914 8.15066976,17.5740354 7.89807173,18.3791379 L7.68962965,19.0409375 L8.36300796,18.88135 C8.55846299,18.8351022 10.2993764,18.4455784 11.4065221,18.9712401 L11.4286,18.9810108 C11.4324962,18.9823135 11.8130166,19.1379927 12.2883425,19.466287 C12.8130191,19.8023978 13.3649685,20.2570593 13.927957,20.8185467 C14.1376977,21.0269875 14.3474385,21.2197952 14.558478,21.3982727 C14.411075,21.3761258 14.2636721,21.348768 14.1195159,21.3175019 C13.7643202,21.2399879 13.3740595,21.1442354 12.9610714,21.0432719 C11.8182114,20.763831 10.5227536,20.4466101 9.1324904,20.2967933 C6.15521022,19.976967 3.77273672,20.5729774 1.83701759,22.1284668 C1.77662783,22.180577 0.364286627,23.4162402 0.134415921,24.9593535 L0,25.8589058 L0.746105764,25.3417121 C1.42208148,24.874023 2.1701353,24.5802518 2.67013656,24.4180588 L2.92143589,24.352921 C3.22533275,24.2741043 3.93637349,24.0897645 4.8655966,24.1900766 C6.21235322,24.3346824 7.57859041,25.0101609 8.92664573,26.1963193 C10.5850914,27.6560563 12.329901,28.6624346 14.2221135,29.2441147 C13.6708135,29.3014359 13.0760068,29.308601 12.4415896,29.263656 C9.12275012,29.0311142 6.59482171,29.1457567 4.92598636,29.6049778 C4.15520521,29.8173269 3.56559334,30.1058871 3.17338457,30.462842 C2.71429251,30.821751 1.93312172,31.555202 1.7551992,32.5062132 L1.62208198,33.2175174 L2.29026548,32.9439389 C2.60520133,32.8149661 3.01689067,32.7999844 4.36559535,32.8104065 C4.58377771,32.8247368 4.81559647,32.8449295 5.05520746,32.8703332 C6.67339333,33.0449024 9.8889858,33.6122522 13.2344487,35.4556505 C13.3104229,35.4973387 13.3850985,35.5370727 13.4604233,35.5781095 C10.8941831,36.2607531 9.08833445,37.5817467 8.65067101,39.818577 C11.0941836,37.3049112 23.1909672,40.541606 26.8416257,39.5664939 C25.7403242,39.9560177 23.813696,41.4203143 23.0390187,43.9919527 C25.9838313,41.1662771 31.607222,41.9414163 33.6130712,42.2527747 C38.9910067,43.0878407 40.4949066,41.4717731 41.9585466,41.4033785 C41.2202331,41.9485814 37.3332104,43.9430993 37.079963,45.383295 C46.7864808,41.6248468 49.728696,45.845773 54.4040323,43.3939881 C54.4481883,43.397245 54.4871494,43.3991991 54.5215651,43.3991991 C54.7053318,43.3991991 54.7663709,43.3562082 54.8287087,43.3119145 C55.2897488,42.9862258 55.7546851,42.3237749 55.5501391,41.5310485" id="Fill-1014" fill="#221E1F"></path>
                    <path d="M46.5942725,35.9797488 L39.6091901,31.6155196 L37.9117832,28.7885412 L38.178667,25.1571117 L43.6338755,27.7743465 C44.1968639,28.0570443 49.0618112,30.5290219 50.1670087,32.0871169 C51.9916886,34.660058 55.2105279,35.8318862 57.4293646,35.8318862 C57.9280671,35.8318862 58.2462498,35.7706567 58.4306658,35.7165923 C58.7267704,35.4742799 59.5391101,34.4828834 59.8553447,34.0979192 C60.0280724,33.8875243 60.1663844,33.7188175 60.2423586,33.6341385 C60.3865149,33.4719455 60.5923595,33.3794499 60.8079445,33.3794499 C61.1780753,33.3794499 61.4930111,33.6452119 61.5559983,34.0106347 C61.6618427,34.6268378 61.7053493,35.5504911 61.6943103,35.848822 C61.6832713,36.1432446 61.476128,37.1880541 61.3878161,37.6231743 L61.3111925,37.9990191 L57.7033913,39.3695174 L46.5942725,35.9797488 Z" id="Fill-1018" fill="#E84824"></path>
                    <path d="M37.5615226,24.0895691 L37.4121716,26.1218669 L37.2361971,28.516982 L37.2037295,28.9579645 L37.4316522,29.3370662 L38.9290585,31.8311907 L39.1011369,32.1177968 L39.3842545,32.2943201 L46.1498558,36.5217601 L46.305051,36.6188153 L46.4797268,36.6722283 L57.2752084,39.9655929 L57.7278069,40.1036849 L58.1700158,39.9356295 L61.1992442,38.7859483 L61.914181,38.5143238 L62.0674282,37.7626342 C62.3732731,36.2579522 62.3843121,35.9693919 62.3875588,35.8742908 C62.4018446,35.4997488 62.3505457,34.5409211 62.2395065,33.8928005 C62.1193763,33.1919183 61.5174268,32.6838438 60.8076847,32.6838438 C60.3946967,32.6838438 59.9998905,32.8610185 59.7245651,33.1704228 C59.6336558,33.2726891 59.5024867,33.432928 59.3200187,33.6550477 C59.0576804,33.974874 58.4148216,34.7584812 58.0914442,35.0828672 C57.9524828,35.1095736 57.7362485,35.1362801 57.4297542,35.1362801 C55.3829958,35.1362801 52.4141572,34.0556448 50.7323348,31.6839794 C49.58428,30.0653063 45.2550484,27.8102374 43.9556945,27.1582085 L43.9446555,27.1523461 L43.9336165,27.1471351 L39.3946441,24.9689287 L37.5615226,24.0895691 Z M38.7959413,26.2241332 L43.3349137,28.4023395 C43.3349137,28.4023395 48.5647969,31.0286936 49.6018125,32.4903847 C51.6972723,35.4450331 55.2440344,36.5276225 57.4297542,36.5276225 C57.9167684,36.5276225 58.33625,36.4742095 58.65703,36.3752001 C58.6589781,36.3752001 58.6602768,36.3752001 58.6622248,36.3752001 C58.9511866,36.3752001 60.4408007,34.4555906 60.7596327,34.097333 C60.7732691,34.0823513 60.7908016,34.0751862 60.8076847,34.0751862 C60.8375549,34.0751862 60.8667758,34.0953789 60.8719706,34.1285991 C60.9680748,34.6848755 61.0115814,35.5525103 61.0011917,35.8221806 C60.9914514,36.0918509 60.7083338,37.484496 60.7083338,37.484496 L57.6791055,38.6341773 L46.8836239,35.3408127 L40.1173732,31.1133727 L38.6199668,28.6192482 L38.7959413,26.2241332 Z" id="Fill-1020" fill="#221E1F"></path>
                    <path d="M51.6568826,29.4683188 C51.6568826,29.4683188 50.5127239,29.4455206 48.6458361,29.7399432 L48.16077,29.8838976 C48.16077,29.8838976 47.5659633,31.5859471 48.0198605,33.2547762 L51.6568826,29.4683188 Z" id="Fill-1022" fill="#FEFEFE"></path>
                    <path d="M57.2074809,37.8818363 C57.2074809,37.8818363 58.3516396,37.9046345 60.2185274,37.6102119 L60.7035936,37.4662574 C60.7035936,37.4662574 61.2931313,35.5711095 60.839234,33.9022804 L57.2074809,37.8818363 Z" id="Fill-1024" fill="#FEFEFE"></path>
                    <path d="M31.0274154,25.6799073 C31.0274154,25.6799073 37.6832762,26.4361565 38.8527596,25.9990822 L38.9202923,26.0166694 C38.9202923,26.0166694 38.923539,28.4502158 40.1495161,28.9843453 C41.3754932,29.5184749 43.8722527,31.1749278 45.6787507,32.6568117 C47.4852488,34.1380441 50.1333074,36.5546546 53.1787695,37.3245828 C56.2242317,38.0951624 59.6489156,37.5219502 60.1359298,37.3402159 C61.9645058,36.6569209 61.994376,35.9097909 62.600871,35.9605983 C63.295678,36.0185709 64.3950314,37.9928962 62.5430787,38.9797331 C62.1619089,39.1829628 61.7904794,39.6044041 61.7904794,39.96657 C61.7904794,41.0700035 60.609957,41.6458212 59.8222927,41.8829226 C59.0352777,42.120024 57.8320279,42.5916213 56.8190384,43.0996958 C56.1339717,43.4429717 54.8002022,44.489084 55.2534501,45.5032787 C55.2534501,45.5032787 53.286562,44.7685249 54.3118893,42.3043638 C54.3118893,42.3043638 53.6586409,42.0789872 52.8826649,42.1936297 C52.1060396,42.3082721 49.0865515,40.173708 49.0865515,40.173708 L42.5514702,36.4133057 L32.3865097,31.6302407 L30.7371549,26.8953777 L31.0274154,25.6799073 Z" id="Fill-1026" fill="#FBB01D"></path>
                    <path d="M35.0913216,18.9089684 C34.4237875,17.9820582 31.6179363,12.5534781 29.1192288,14.1916925 C26.4315597,15.9543201 23.4309028,11.0722457 18.9360864,13.2667365 C18.9360864,13.2667365 20.8114158,12.7280473 22.8289533,15.1107862 C23.6854489,16.1223755 24.362074,17.241442 24.362074,17.241442 C24.362074,17.241442 22.3490819,18.5350777 17.8438759,16.568569 C12.1282771,14.0737932 9.95099894,17.5996996 9.95099894,17.5996996 C9.95099894,17.5996996 11.7380164,16.8232576 14.819193,19.8899429 C16.1899756,21.2552302 17.5146542,21.7756808 19.1308921,22.0635896 C19.1308921,22.0635896 16.7445225,23.1507387 13.8555542,22.5221594 C10.9295728,21.8851122 6.20553502,20.1791545 2.60942212,23.0979771 C4.29384192,22.6530863 6.35943151,22.2205716 9.76138808,25.2156054 C13.2036045,28.2458135 16.2295861,28.4764011 18.432189,28.5988601 C18.432189,28.5988601 17.0321855,31.0701863 12.4646416,30.7490572 C4.80683022,30.2116708 3.91267214,31.4961872 3.91267214,31.4961872 C3.91267214,31.4961872 8.72372314,31.4948845 13.8438658,34.3173032 C19.689335,37.5383649 23.2880453,37.6412826 26.0718185,36.3163807 C26.0718185,36.3163807 31.1861171,35.8858202 35.491972,35.8773523 C41.5452339,35.8649761 48.9510966,41.9814109 50.8998028,42.4074118 C52.5127938,42.7604584 53.250458,42.8959449 54.2212397,42.312962 C54.4251363,42.1911544 54.7757865,41.5475935 53.3601986,41.4270886 C51.890065,41.3020241 49.7147349,40.3731598 46.9842086,38.1610818 C44.2426433,35.9405359 43.1835497,34.0697797 38.0049653,32.3012898 C34.7166454,31.1776636 34.8672951,31.3652604 33.3478108,30.4324878 C31.6796248,29.407871 29.5815676,25.943194 31.6179363,23.7096206 C33.4854735,21.6623411 35.0056071,21.6271667 35.8056091,21.0598169 C35.51405,20.6005958 35.6478165,20.0801451 35.0913216,18.9089684" id="Fill-1028" fill="#E84824"></path>
                    <path d="M34.9143082,2.05874438 C35.5376864,2.05874438 36.1584672,2.56160781 36.2500258,3.68979364 C36.405221,5.59377008 36.7792479,9.90132949 40.9221155,11.8000949 C42.5708209,12.5563442 44.4169294,12.8449044 46.1143363,12.9113449 L45.5149841,18.5170997 C43.3669268,18.1445118 41.0597781,17.3622074 38.6253565,15.7415802 C38.6253565,15.7415802 36.0454799,14.0427876 35.1467763,12.2769032 C33.9493707,9.92608184 32.198717,4.7795482 33.8974225,2.58180051 C34.1597609,2.24243284 34.5376839,2.05874438 34.9143082,2.05874438 Z" id="Combined-Shape" fill="#037198"></path>
                    <path d="M12.4163298,37.2465478 C19.5403736,35.0650846 28.2916942,33.3057139 35.7196349,34.3244683 C38.6982138,35.1569288 41.0865315,37.0055381 44.0339414,37.937008 C46.6319999,39.3719926 50.5553863,41.3867032 53.196302,42.7187702 C50.6898023,43.0177525 47.688496,42.1344846 43.5703039,42.3598612 C44.2936823,41.8784932 44.6755015,41.5977495 44.5638129,40.6467384 C44.4579685,39.7432778 43.1605626,39.4234514 40.9092583,40.1152143 C36.6540528,41.4238317 33.5098891,39.9419479 29.8936463,39.9562782 C31.3767669,38.734294 30.7404017,38.2333847 24.5975291,38.0965955 C19.8306341,37.9904209 13.1487992,36.7951432 12.4163298,37.2465478" id="Fill-1034" fill="#E84824"></path>
                    <path d="M29.7696849,26.345094 C26.6144822,26.4636447 25.1878553,30.3478087 21.9631719,30.5451761 C24.0313589,31.4089026 27.4521467,31.2173977 28.2566941,31.1522599 C30.6261806,30.9594522 31.108,31.1991591 32.4190422,31.2805813 C30.8274798,31.6225545 29.7294251,33.1435209 26.400196,33.8496141 C28.0424079,34.4475787 30.9677399,34.9328549 32.4826787,34.6201937 C35.2391792,33.8847885 37.0924305,34.4280374 38.2450308,35.3269383 C37.1846386,34.4996889 34.7878793,35.3269383 32.8670953,36.9325839 C36.8365858,36.6759411 39.3339946,38.0887789 42.7911461,37.3181993 C45.5197244,36.7098128 45.9989464,37.4458693 45.2801134,36.6316475 C40.7242578,31.4688294 35.0196981,29.1134483 29.7696849,26.345094" id="Fill-1036" fill="#221E1F"></path>
                    <path d="M60.267099,32.1314106 C59.6573572,32.1268509 52.348248,31.110702 51.8761689,31.0429588 C50.70214,30.8736006 44.9845932,29.9336629 43.3638099,29.5148271 C43.3261475,29.5050565 40.1904253,28.6081097 38.9196429,27.3600704 C37.9787315,27.6173645 36.0826228,28.0674663 34.3209301,28.0674663 C31.563131,28.0681177 30.5683233,26.9308126 30.2202705,25.9765446 C29.8475423,24.9551846 29.9728673,23.9129806 30.5826091,22.9619695 C31.8417031,20.9987177 35.0319708,19.7604491 36.8514559,19.6210543 C37.0741837,19.6041185 37.3254831,19.5956506 37.598211,19.5956506 C39.8040607,19.5956506 43.7430316,20.2138078 44.1904353,20.4483037 C44.4508256,20.585093 44.578748,20.7844145 44.886541,21.2651311 C45.240438,21.818802 46.0696608,23.1143918 46.7183637,23.347585 C47.3807031,23.5866405 47.9177174,23.6973747 48.4086277,23.6973747 C48.9859019,23.6973747 49.4975915,23.5358331 49.972268,23.2029792 C50.1040865,23.1111349 50.244996,23.00952 50.394347,22.9020428 C51.6333111,22.0129125 53.4463641,21.5674124 55.0294849,21.5674124 C55.4697458,21.5674124 57.1099482,21.9249765 58.6352767,21.9927198 C58.965797,22.0077015 59.238525,22.0135638 59.4632009,22.0135638 C59.7664484,22.0135638 59.959306,22.0024904 60.0761894,21.9907656 C60.4969697,21.4963701 61.4619072,20.5310287 62.5859359,20.5310287 C62.8476249,20.5310287 63.0995736,20.5831389 63.3359378,20.6854051 C63.6261983,20.811121 63.8898353,20.904268 64.1450308,20.9935067 C64.8489286,21.2416815 65.5775019,21.4983242 65.9658145,22.3027755 C66.2028281,22.79196 66.3826987,23.5469065 66.5151666,24.6093032 C66.6956865,24.8809276 67.216467,25.4977821 67.5229613,25.6834247 C68.6028341,26.3380591 68.4586779,28.141072 68.1619239,28.7338255 L68.0703653,28.9155598 L67.9080272,29.0373674 C67.8391959,29.0888263 66.2034775,30.3055994 64.3300962,31.0566377 C62.2184026,31.9027771 61.4826864,32.1320619 60.3320342,32.1320619 L60.267099,32.1314106 Z" id="Fill-1038" fill="#FBB01D"></path>
                    <path d="M36.7856116,18.7610406 C34.8641782,18.9082519 31.3336499,20.197328 29.8596202,22.4953878 C29.0985794,23.6821976 28.9440335,24.9888609 29.4128659,26.2733773 C29.8557241,27.4849394 31.0661168,28.9296947 34.3213197,28.9296947 C35.9213237,28.9296947 37.6174319,28.5805564 38.6875644,28.3115375 C39.0544484,28.5955381 39.5167873,28.8769332 40.0869186,29.1667962 C41.051856,29.6579348 42.225885,30.1112935 43.1499132,30.3496977 C44.9012163,30.8024051 50.7914908,31.7579759 51.7544802,31.8967193 C51.8304545,31.9071413 59.5447595,32.9884279 60.2609951,32.993639 L60.3324238,32.9942903 C61.617492,32.9942903 62.4506109,32.7376476 64.6486684,31.8569852 C66.6259461,31.0649102 68.349327,29.7829993 68.4220545,29.7282836 L68.7473799,29.4846684 L68.9298479,29.1205483 C69.2701085,28.441813 69.2382903,27.5403065 69.2207578,27.2797555 C69.1480303,26.2206157 68.703224,25.3914122 67.9675079,24.9452186 C67.8311439,24.8540257 67.5285457,24.5224746 67.3395842,24.2795108 C67.1960774,23.2242792 67.0032197,22.4712868 66.7395827,21.9260838 C66.1960749,20.8018063 65.2162023,20.4572276 64.4298367,20.1797408 C64.188927,20.0950617 63.9395757,20.0077771 63.6772374,19.893786 C63.3324313,19.7446206 62.9648979,19.6684094 62.5863256,19.6684094 C61.3187899,19.6684094 60.0992341,20.608086 59.5995707,21.3230634 C59.5378822,21.3243662 59.280166,21.7594936 58.1713784,21.6030171 C57.1754998,21.4624747 56.7224787,21.2493961 55.2449594,21.4331944 C53.4894223,21.6515772 51.2278556,21.2434402 49.894086,22.2009652 C49.7473324,22.3064883 49.6090203,22.4054977 49.4804486,22.4960392 C49.1499283,22.7272782 48.8096677,22.8347555 48.408368,22.8347555 C48.0252501,22.8347555 47.5674568,22.7370488 47.0090138,22.5357732 C46.7427794,22.414617 46.2687522,21.8290286 45.6096597,20.7992008 C45.2732952,20.2741905 45.0512167,19.9270063 44.5888779,19.6846939 C43.8771878,19.3108032 39.6297746,18.7330313 37.5979513,18.7330313 C37.3031454,18.7330313 37.0304174,18.742802 36.7856116,18.7610406 Z M37.5979513,20.457879 C39.9154896,20.457879 43.6005637,21.1125134 43.792772,21.2128255 C44.0044608,21.324211 45.1538144,23.7004362 46.4278435,24.1596573 C47.0616114,24.3876394 47.7304442,24.5596031 48.408368,24.5596031 C49.094084,24.5596031 49.7888909,24.3830798 50.4648666,23.9101797 C51.5875967,23.1233157 53.4298091,21.6564136 54.9135791,21.6564136 C55.2057876,21.6564136 55.4843597,21.7130834 55.7402045,21.8433589 C55.7402045,21.8433589 56.6817653,22.7689663 58.5973545,22.8542968 C58.9428099,22.8699298 59.2272262,22.8757922 59.4622918,22.8757922 C60.5330737,22.8757922 60.5739829,22.7448654 60.5739829,22.7448654 C60.5739829,22.7448654 61.5863231,21.3932571 62.5863256,21.3932571 C62.7239882,21.3932571 62.8610016,21.4186608 62.9954175,21.4772848 C64.1071086,21.9586527 64.8642533,22.0003409 65.1928256,22.6790762 C65.5213978,23.3578116 65.6584112,24.7003006 65.6811385,24.8637964 C65.7038658,25.0266408 66.5136081,26.0792668 67.0778952,26.4218914 C67.6428317,26.7638645 67.5467276,28.0412158 67.3934805,28.3460605 C67.3934805,28.3460605 65.8012687,29.5380813 64.0110044,30.255248 C61.9324278,31.0883598 61.3051535,31.2694427 60.3324238,31.2694427 C60.3129432,31.2694427 60.2934627,31.2694427 60.2733328,31.2687913 C59.7882666,31.2655345 53.1044836,30.3483949 51.9986367,30.1894588 C50.8927898,30.0298713 45.1784898,29.0931905 43.5784857,28.6795658 C41.9791311,28.2659411 39.3810726,27.0615441 39.2550983,26.3639188 C39.2550983,26.3639188 36.6297671,27.2054985 34.3213197,27.2054985 C32.821316,27.2054985 31.4550788,26.8504978 31.0271556,25.6799724 C29.942088,22.7070855 34.7336584,20.6480812 36.9167808,20.4806772 C37.1245735,20.4650441 37.3537948,20.457879 37.5979513,20.457879" id="Fill-1040" fill="#221E1F"></path>
                    <path d="M34.6204114,21.0669821 C34.6204114,21.0669821 36.4905459,20.1706866 40.4418545,21.2623953 C42.6106911,21.8616626 43.6529015,22.9038666 44.1464092,23.6731434 C44.6775794,24.502347 45.4840749,25.121807 46.4275838,25.3960369 C46.7814808,25.499606 47.1632999,25.5862392 47.5516126,25.6350925 C48.3386275,25.7341019 48.7795377,25.7100009 49.8464235,25.4260003 C50.9139587,25.1419997 54.0827978,21.8075983 57.3983905,22.6771872 L55.7405941,21.843424 L53.0003275,21.434359 C53.0003275,21.434359 52.1840917,21.6317264 50.9944783,23.725905 C50.9944783,23.725905 51.2938297,20.3960632 49.0892788,19.7596674 C46.8847278,19.123923 45.1788794,18.3416186 43.8074474,20.2742556 C43.5678364,20.1850169 38.1184721,16.8577807 34.6204114,21.0669821" id="Fill-1042" fill="#221E1F"></path>
                    <path d="M30.7379991,15.7906289 C30.7379991,15.7906289 28.1581225,14.091185 27.2594189,12.325952 C26.0620133,9.97447919 24.3113596,4.82859693 26.0100651,2.63084924 C26.7061708,1.72934278 28.2152655,1.92801292 28.3626684,3.73884237 C28.5172143,5.64216743 28.8912412,9.95037822 33.0341087,11.8491436 C37.1769762,13.747909 42.5717949,12.7044023 43.694525,12.5689158 C44.8166057,12.4334293 51.6607787,11.7403636 53.6951994,17.0640719 C55.1594888,20.8974285 54.9783195,21.5331729 55.7406591,21.8432286 C55.7406591,21.8432286 53.0263666,21.7220724 50.9945433,23.726361 C50.9945433,23.726361 51.0724656,22.9935613 50.9685692,21.8425773 C50.8640235,20.6915932 49.6666179,19.1380579 46.1698559,18.9042133 C42.1919238,18.6475706 36.8633391,19.8689034 30.7379991,15.7906289" id="Fill-1044" fill="#00A3B9"></path>
                    <path d="M44.573748,21.6104915 C44.573748,21.6104915 45.9529722,20.0348093 48.1003802,20.5083607 C49.8023325,20.8835542 50.3763599,22.0638502 50.3380481,23.4845045 C50.3380481,23.4845045 49.7335012,24.8628193 46.9782995,24.0915884 C45.3237499,23.6284589 44.573748,21.6104915 44.573748,21.6104915" id="Fill-1046" fill="#FEFEFE"></path>
                    <path d="M49.7583714,23.2777573 C49.2642143,24.3095393 48.1609648,24.8065403 47.2927808,24.3890073 C46.4252461,23.970823 46.122648,22.795738 46.6161557,21.763956 C47.1103128,20.732174 48.2142116,20.235173 49.0817463,20.652706 C49.9492809,21.0708903 50.2525284,22.2459753 49.7583714,23.2777573" id="Fill-1048" fill="#221E1F"></path>
                    <path d="M62.8752224,25.4850802 C63.7583415,25.2766394 64.2830181,23.9934258 63.6648348,23.57459 C62.5057409,22.7896801 61.9206745,24.0051506 60.1492415,25.2356027 C57.3336501,27.192992 52.5751966,28.2117465 47.6647947,27.3037262 C47.5498593,27.2822308 47.560249,27.3779833 47.6673921,27.4248824 C49.9245406,28.4123707 53.9979274,28.6631511 58.4089774,27.5890296 C61.2992444,26.8848905 61.4304136,25.8257507 62.8752224,25.4850802" id="Fill-1050" fill="#221E1F"></path>
                    <path d="M48.3144716,21.9626261 C47.9242109,22.2785442 47.3839498,22.2563974 47.1086245,21.9137728 C46.8332991,21.5711482 46.9268058,21.0376701 47.3170665,20.721752 C47.7073273,20.4058339 48.2475884,20.4279807 48.5229137,20.7706053 C48.7982391,21.1132299 48.7047324,21.646708 48.3144716,21.9626261" id="Fill-1052" fill="#FEFEFE"></path>
                    <path d="M50.9174002,20.6813666 C50.9174002,20.6813666 51.0544136,22.5306273 52.052468,22.2752873 C53.0985745,22.0082226 55.5336456,20.9093487 55.7213084,21.833002 L54.1764993,22.5501686 L51.3602585,23.9688688 L50.6985685,24.0340066 L50.9174002,20.6813666 Z" id="Fill-1054" fill="#221E1F"></path>
                    <path d="M24.6628032,17.6157887 C24.6628032,17.6157887 26.5792224,20.2271611 31.286377,19.23837 C32.3435226,19.0155989 33.8656043,18.4300105 34.9909318,19.0638008 C34.9909318,19.0638008 35.2591143,18.2000743 32.222743,16.6973464 C32.222743,16.6973464 34.0026176,15.5437568 36.1506749,16.9715763 C38.2987323,18.3993958 39.0117211,18.903562 39.535099,18.7889195 C40.0591263,18.6742771 39.7162683,17.0985949 38.4136676,16.5312451 C38.4136676,16.5312451 39.2922413,16.2837217 40.9708169,17.3194119 C42.6493925,18.3544507 43.5097843,18.2762854 43.7149796,17.9564591 C43.9195256,17.6366327 43.317576,16.8875486 42.3428982,16.4407036 C41.3682205,15.9945101 45.4110877,15.7964913 48.3455107,17.685486 C49.9968135,18.7485341 50.1981127,20.9006854 52.4831834,20.2681978 C53.8598102,19.887142 50.9916212,23.4840486 50.9916212,23.4840486 C50.9916212,23.4840486 51.1474657,20.5241892 48.8020053,19.7861785 C47.5403139,19.3888382 46.4234279,19.6122607 45.5662829,19.9894083 C44.174721,20.6017031 42.6454964,20.8388045 41.1480901,20.5802077 C39.6571772,20.3222622 35.2837897,19.1009294 32.0928726,21.4497966 C31.5857284,21.8230359 29.6480613,21.9989079 27.9798753,21.2635027 C24.5798667,19.7653344 24.6628032,17.6157887 24.6628032,17.6157887" id="Fill-1056" fill="#221E1F"></path>
                    <path d="M18.1147856,25.4592206 C18.1147856,25.4592206 20.4927137,26.1789927 24.6466202,24.0978416 C27.5745496,22.6315908 28.5907859,22.0955071 31.8219628,21.5919923 C31.9167682,21.9013966 28.2141616,23.853575 31.0524804,27.1931875 C27.1894837,25.0677427 23.1225904,28.4340616 18.1147856,25.4592206" id="Fill-1058" fill="#221E1F"></path>
                    <path d="M56.6566354,39.1251857 C53.6748097,39.0730755 49.2072661,37.5566686 45.9488164,34.2880563 C43.8942658,32.2270979 39.7000994,29.7889919 39.6578915,29.7642396 L39.561138,29.7082211 L39.4864625,29.6241934 C39.4436053,29.5772943 38.3436025,28.3917872 36.2565843,28.5318334 L36.1643763,27.1437479 C38.5994473,26.9822063 40.0715289,28.2478328 40.4358155,28.6080445 C41.0682847,28.9793297 44.8871254,31.2545913 46.9299876,33.3038249 C49.8981769,36.2819229 54.0657198,37.6875955 56.6813108,37.7338433 C59.0066413,37.7768342 61.7904145,37.1892917 61.9157395,35.4019119 C62.7094913,35.851257 63.099671,36.1036366 63.0862786,36.1590508 C62.6389361,38.0100407 59.8270009,39.1277912 56.9124802,39.1277912 C56.8267657,39.1277912 56.7417005,39.1271398 56.6566354,39.1251857 Z" id="Fill-1060" fill="#221E1F"></path>
                </g>
            </g>
        </g>
    </g>
</svg>